<svg width="109" height="94" viewBox="0 0 109 94" fill="none" xmlns="http://www.w3.org/2000/svg">
<path d="M42.5784 2.94436C42.2809 2.20424 41.5201 1.75343 40.8094 1.89581C40.0985 2.03788 39.4998 2.7607 39.4163 3.5767C39.3332 4.39271 39.7727 5.23088 40.4391 5.52596C41.1054 5.82103 41.9396 5.54751 42.3801 4.88936" fill="black"/>
<path d="M34.8921 87.2255L39.011 93.9581H28.793C28.793 93.9581 28.0802 89.5223 26.1792 93.9581H22.6938L24.6741 87.2255H34.8921Z" fill="#FD513D"/>
<path d="M34.4999 85.483L34.135 87.2255H24.6738L25.0773 85.483H34.4999Z" fill="#A94D04"/>
<path d="M53.823 87.2255L58.734 93.9581H48.5159C48.5159 93.9581 47.8031 89.5223 45.9018 93.9581H42.4165L43.6047 87.2255H53.823Z" fill="#FD513D"/>
<path d="M52.639 85.483L53.0664 87.2255H43.6052L43.2163 85.483H52.639Z" fill="#A94D04"/>
<path d="M43.2762 85.7541L52.8619 86.3938L52.6345 85.483H43.2085L43.2762 85.7541Z" fill="black"/>
<path d="M40.7028 6.64711C40.8901 8.03293 39.786 9.31341 38.5088 9.88322C37.2317 10.4527 35.7952 10.5055 34.413 10.7177C32.5897 10.9979 30.7625 11.5987 29.3649 12.8027C27.9672 14.0067 27.0692 15.8949 27.395 17.7109C27.7207 19.5266 29.4763 21.08 31.3071 20.8547C31.24 22.7858 32.4021 24.7508 34.1629 25.5468C35.9236 26.3427 38.0441 26.1506 39.7544 25.2511C41.4648 24.3516 42.7801 22.8037 43.6213 21.0639C44.2361 22.6428 45.1398 23.9843 46.6155 24.817C48.0912 25.6494 49.858 25.9539 51.5273 25.6633C52.5817 25.4797 53.6296 25.0398 54.3296 24.2305C55.336 23.0672 55.3299 21.7002 54.9319 20.2145C54.534 18.7288 52.2523 16.0257 51.5258 14.6697C49.9982 11.8176 50.1792 9.91722 49.8495 6.58032" fill="black"/>
<path d="M50.1487 11.1582C49.6481 12.2356 48.7325 12.9937 47.5586 13.1797C47.2031 13.2368 46.83 13.2408 46.46 13.1931L46.4442 13.3619L46.2502 15.483L46.1719 16.3369L46.0262 17.9234L39.645 16.9896L40.9395 11.5462L41.5399 5.64897L41.7767 3.32419C41.9318 1.7963 43.0053 0.495788 44.4937 0.119355C44.6212 0.0868726 44.7481 0.0622836 44.8732 0.0464977C45.9988 -0.0977003 47.449 0.0908196 48.4378 0.649397C49.4262 1.20797 50.125 2.19156 50.2595 3.02578C50.3427 3.54155 50.3982 4.07372 50.4362 4.61226C50.5139 5.67538 50.5264 6.76127 50.5622 7.791C50.601 8.93274 50.6302 10.1231 50.1487 11.1582Z" fill="#A94D04"/>
<path d="M60.2387 29.8778C60.2387 29.8778 56.9761 21.4178 53.9018 18.4716C52.0009 16.6499 46.2184 16.0952 46.2184 16.0952C46.2184 16.0952 43.7627 19.1844 40.0024 15.4829C40.0024 15.4829 32.168 16.3791 30.1389 18.4716C27.6041 21.0857 22.5347 34.7887 22.5347 34.7887L32.4018 34.0939L31.9846 37.7243L50.7331 38.6703L51.2064 33.7596C52.6511 36.1257 56.8556 42.2855 62.9314 45.0071L68.6343 38.6703L60.2387 29.8778Z" fill="#FE6EAC"/>
<mask id="mask0_135_2191" style="mask-type:luminance" maskUnits="userSpaceOnUse" x="22" y="15" width="47" height="31">
<path d="M60.2387 29.8778C60.2387 29.8778 56.9761 21.4178 53.9018 18.4716C52.0009 16.6499 46.2184 16.0952 46.2184 16.0952C46.2184 16.0952 43.7627 19.1844 40.0024 15.4829C40.0024 15.4829 32.168 16.3791 30.1389 18.4716C27.6041 21.0857 22.5347 34.7887 22.5347 34.7887L32.4018 34.0939L31.9846 37.7243L50.7331 38.6703L51.2064 33.7596C52.6511 36.1257 56.8556 42.2855 62.9314 45.0071L68.6343 38.6703L60.2387 29.8778Z" fill="white"/>
</mask>
<g mask="url(#mask0_135_2191)">
<path d="M23.9173 39.7643C25.1601 33.7784 27.4679 28.0302 30.6989 22.8403C32.316 20.2423 34.1614 17.7867 36.2145 15.5166C37.213 14.4125 38.3171 13.1778 39.7824 12.717C41.0957 12.3038 42.3859 12.7765 43.2487 13.8117C44.041 14.7622 44.4711 15.9905 44.7495 17.1802C45.1117 18.7275 45.2954 20.3328 45.4411 21.9132C45.7425 25.1845 45.7106 28.4865 45.3509 31.7518C44.9848 35.0753 44.2772 38.3621 43.2392 41.5408C42.9897 42.3052 42.7207 43.0633 42.4329 43.814C42.1713 44.4967 41.9105 45.184 41.5195 45.8055C41.171 46.3598 40.6953 46.9253 40.0487 47.1287C39.4691 47.3109 38.8292 47.157 38.4057 46.721C37.6246 45.9175 37.5387 44.5669 37.607 43.5116C37.7054 41.9938 38.0011 40.4631 38.3028 38.9744C38.9182 35.9384 39.8143 32.9597 40.9709 30.0864C42.1239 27.2221 43.5389 24.4626 45.1921 21.8549C46.0391 20.5189 46.9486 19.2217 47.9192 17.9725C48.8448 16.7813 49.8684 15.4465 51.3368 14.911C52.7639 14.3903 54.3713 14.7707 55.0535 16.213C55.3704 16.883 55.4797 17.638 55.5607 18.3675C55.6536 19.2059 55.7271 20.0468 55.7911 20.8877C56.0556 24.3697 56.0996 27.8684 55.9244 31.3559C55.7462 34.9068 55.3409 38.4456 54.7095 41.9443C54.4378 43.4491 54.215 45.0286 53.6822 46.4685C53.2663 47.5923 52.4837 48.8716 51.1383 48.8958C49.5396 48.925 48.567 47.2268 48.5224 45.813C48.4698 44.1473 49.213 42.4925 49.7968 40.9656C50.9006 38.0789 52.1956 35.2663 53.6661 32.548C56.5716 27.1778 60.1648 22.1794 64.3371 17.7214C65.3528 16.6362 66.4035 15.584 67.4849 14.564C67.5917 14.4632 67.4305 14.3023 67.324 14.4031C62.6195 18.8398 58.5254 23.915 55.1788 29.4482C53.4864 32.2463 51.9849 35.16 50.6917 38.1633C50.0645 39.6198 49.4823 41.0967 48.9568 42.5933C48.4395 44.0666 47.9362 45.7945 48.6195 47.3006C49.1353 48.4371 50.3131 49.3627 51.6124 49.0652C52.7472 48.8051 53.4245 47.7316 53.8279 46.721C54.422 45.2338 54.6461 43.5721 54.929 42.0047C55.2563 40.1924 55.5228 38.3691 55.7295 36.5391C56.1491 32.8264 56.3188 29.0858 56.2368 25.3503C56.1961 23.4948 56.0932 21.6409 55.9284 19.7921C55.8033 18.3908 55.7972 16.6911 54.9005 15.5208C54.0744 14.4428 52.6139 14.2464 51.3817 14.6544C49.9397 15.132 48.9073 16.3538 47.9972 17.5062C45.9778 20.0632 44.2101 22.817 42.7207 25.7149C41.2314 28.6125 40.018 31.6528 39.1046 34.7799C38.6462 36.3491 38.2637 37.9404 37.9595 39.5467C37.6838 41.0029 37.3569 42.5402 37.3645 44.0283C37.3696 45.0505 37.553 46.3209 38.3902 47.0158C39.2688 47.745 40.4303 47.418 41.1579 46.653C42.1464 45.6139 42.5902 44.0936 43.0586 42.7752C43.6509 41.1085 44.1509 39.4088 44.5571 37.6873C45.3561 34.3012 45.7944 30.8292 45.8639 27.3508C45.8995 25.5822 45.8385 23.8118 45.6812 22.0498C45.5358 20.4208 45.3482 18.7642 44.9809 17.1686C44.4833 15.0066 43.2046 12.153 40.5453 12.3394C39.0736 12.4426 37.8484 13.4753 36.8623 14.4859C35.7303 15.6462 34.6812 16.8975 33.6836 18.1744C29.7347 23.2295 26.7263 29.0132 24.8587 35.1503C24.4024 36.6493 24.0166 38.169 23.6981 39.7033C23.6681 39.8469 23.8876 39.9079 23.9173 39.7643Z" fill="#FD513D"/>
</g>
<path d="M33.28 25.5074L31.876 37.7108L32.1022 37.7368L33.5062 25.5334L33.28 25.5074Z" fill="black"/>
<path d="M51.8886 25.5065L51.0933 33.7448L51.3199 33.7666L52.1153 25.5283L51.8886 25.5065Z" fill="black"/>
<path d="M41.2706 47.8519L35.9216 85.4831H23.0898L31.9855 37.7244L50.734 38.6703L51.7637 85.4831H41.5457L39.0108 56.9677" fill="#69B0DE"/>
<path d="M40.2943 53.9346L35.8135 85.4658L36.0389 85.4979L40.5197 53.9666L40.2943 53.9346Z" fill="black"/>
<path d="M46.4599 13.1933L46.4441 13.3621L46.2502 15.4832L44.1631 12.1074L44.1798 12.1098C44.7751 12.717 45.6108 13.088 46.4599 13.1933Z" fill="black"/>
<path d="M46.3375 6.41784C46.312 6.65645 46.3878 6.86046 46.5071 6.87321C46.6265 6.88596 46.7439 6.7029 46.7697 6.46429C46.7952 6.22568 46.7193 6.02168 46.6 6.00893C46.4807 5.99618 46.3633 6.17923 46.3375 6.41784Z" fill="black"/>
<path d="M49.3366 6.58362C49.3108 6.82223 49.387 7.02623 49.5063 7.03898C49.6256 7.05173 49.7431 6.86867 49.7689 6.63006C49.7944 6.39145 49.7185 6.18745 49.5992 6.1747C49.4796 6.16195 49.3621 6.3447 49.3366 6.58362Z" fill="black"/>
<path d="M47.9195 8.64678L47.9155 8.4191C48.0379 8.41697 48.1511 8.36628 48.234 8.27612C48.3169 8.18626 48.3584 8.06938 48.3505 7.94704L48.2519 6.40275L48.4793 6.38818L48.5779 7.93247C48.5898 8.11734 48.5269 8.29403 48.4015 8.43033C48.2759 8.56664 48.1047 8.64344 47.9195 8.64678Z" fill="black"/>
<path d="M47.7713 10.0228C47.4274 10.021 47.0922 9.86069 46.8749 9.59385C46.6575 9.32701 46.5683 8.96667 46.636 8.62939L46.8591 8.67432C46.8048 8.94572 46.8764 9.23563 47.0513 9.45026C47.2261 9.66489 47.4957 9.79391 47.7722 9.79543L47.7713 10.0228Z" fill="black"/>
<path d="M50.0671 5.53814C49.8431 5.37695 49.5416 5.3308 49.2797 5.41793L49.208 5.20178C49.538 5.09219 49.9181 5.15017 50.2004 5.35327L50.0671 5.53814Z" fill="black"/>
<path d="M46.8865 5.29596C46.6624 5.13476 46.3607 5.08861 46.099 5.17574L46.0273 4.95959C46.357 4.85 46.7374 4.90799 47.0197 5.11108L46.8865 5.29596Z" fill="black"/>
<path d="M50.435 4.61257C49.3221 4.22764 48.4278 3.26925 48.0644 2.12872C46.6039 4.23735 44.1 5.57581 41.5391 5.64958L41.7759 3.3248C41.931 1.79691 43.0044 0.496398 44.4928 0.119965C44.6204 0.0874829 44.7472 0.062894 44.8723 0.0471081C45.998 -0.0970899 47.4481 0.09143 48.4369 0.650008C49.4253 1.20859 50.1242 2.19217 50.2586 3.02639C50.3418 3.54156 50.3971 4.07372 50.435 4.61257Z" fill="black"/>
<path d="M42.4978 6.13134C42.302 5.8308 42.0576 5.54818 41.7365 5.3888C41.415 5.22942 41.0045 5.21424 40.7122 5.4225C40.4912 5.58005 40.3649 5.84143 40.3027 6.10554C40.1903 6.58337 40.2665 7.10278 40.5118 7.52809C40.7571 7.9534 41.1685 8.27974 41.6384 8.42151" fill="#A94D04"/>
<path d="M41.5542 6.33684C41.5053 6.26398 41.4206 6.2142 41.3332 6.20691C41.2458 6.19962 41.1541 6.23484 41.094 6.29889L40.9282 6.14286C41.0363 6.0278 41.1948 5.96709 41.352 5.98014C41.5093 5.99319 41.6556 6.07911 41.7433 6.20995L41.5542 6.33684Z" fill="black"/>
<path d="M25.0166 85.7447L34.3093 86.3938L34.5 85.483H25.0773L25.0166 85.7447Z" fill="black"/>
<path d="M36.4586 82.1595H23.6875V82.3872H36.4586V82.1595Z" fill="black"/>
<path d="M86.0215 93.9586H83.3285L77.478 66.8515L76.849 63.9381L74.4966 53.0373L74.38 52.4994L74.1141 51.2648L73.8232 49.9181H76.5166L76.8071 51.2648L76.9971 52.1469L79.5423 63.9381L80.2566 67.2492L86.0215 93.9586Z" fill="#A1AFD6"/>
<path d="M80.2563 67.2491L77.4776 66.8514L76.8486 63.938H79.542L80.2563 67.2491Z" fill="black"/>
<path d="M61.0308 66.3144C61.0308 66.3144 79.0112 67.0272 82.4173 65.3639C85.8234 63.7006 89.7046 39.1454 89.7046 39.1454H61.0308V66.3144Z" fill="#FD513D"/>
<path d="M75.2096 25.5216L75.5265 31.3038L68.4951 30.1544L68.8151 28.5931L68.9869 27.7534L69.4147 25.6664L69.6041 24.7435L71.1162 17.3739L77.0116 16.2546L75.2096 25.5216Z" fill="#F7987A"/>
<path d="M71.9619 25.1254L68.9868 27.7535L69.4146 25.6664L69.604 24.7435L71.9619 25.1254Z" fill="black"/>
<path d="M77.0114 16.2546L68.613 14.6697C68.1127 16.1393 67.586 17.6726 67.0857 19.1425C66.7178 20.2236 66.3447 21.3544 66.5059 22.4852C66.6737 23.6619 67.3307 24.6518 68.4002 25.17C69.47 25.6879 70.8776 25.7113 71.9487 25.1208" fill="#F7987A"/>
<path d="M71.5253 19.0503C71.4807 19.2862 71.3492 19.4592 71.2311 19.437C71.1133 19.4149 71.0538 19.2054 71.0982 18.9698C71.1428 18.734 71.2742 18.5609 71.3923 18.5831C71.5104 18.6052 71.5699 18.8144 71.5253 19.0503Z" fill="black"/>
<path d="M68.6074 18.3412C68.5628 18.5771 68.4314 18.7501 68.3133 18.7279C68.1955 18.7058 68.1357 18.4966 68.1803 18.2607C68.2249 18.0249 68.3564 17.8518 68.4745 17.874C68.5923 17.8961 68.6521 18.1053 68.6074 18.3412Z" fill="black"/>
<path d="M69.3662 20.726C69.1898 20.6692 69.0484 20.5463 68.9676 20.3796C68.8869 20.2129 68.8781 20.0256 68.9427 19.852L69.484 18.4021L69.6974 18.4816L69.1561 19.9315C69.1133 20.0463 69.1191 20.1701 69.1725 20.28C69.2259 20.3902 69.3195 20.4716 69.436 20.5089L69.3662 20.726Z" fill="black"/>
<path d="M69.4376 22.1331C69.3274 22.1331 69.2169 22.1176 69.1104 22.086L69.175 21.8677C69.4406 21.9464 69.7357 21.9008 69.9652 21.746C70.1947 21.5912 70.3471 21.3341 70.3735 21.0587L70.6003 21.0806C70.5675 21.423 70.3778 21.7424 70.0924 21.9348C69.8997 22.0651 69.6689 22.1331 69.4376 22.1331Z" fill="black"/>
<path d="M68.9982 17.2415C68.7726 17.0824 68.4706 17.0393 68.2095 17.1289L68.1357 16.9137C68.4648 16.8007 68.8452 16.8554 69.1293 17.0557L68.9982 17.2415Z" fill="black"/>
<path d="M72.1134 17.9301C71.8879 17.771 71.5858 17.7279 71.325 17.8175L71.251 17.6023C71.5797 17.4893 71.9607 17.544 72.2446 17.7443L72.1134 17.9301Z" fill="black"/>
<path d="M75.3681 28.5315C75.3681 28.5315 71.3284 32.4127 68.7143 28.8484C68.7143 28.8484 62.9321 29.9574 60.5557 33.1258C59.2173 34.9105 57.7043 45.5617 57.7043 45.5617L53.3477 54.4331L82.18 47.8586L88.596 39.8585L81.3879 32.3335L75.3681 28.5315Z" fill="#865EA6"/>
<path d="M47.1945 86.3938L42.6172 92.8238L52.8103 93.5345C52.8103 93.5345 54.0762 91.3202 55.418 93.7163L58.8949 93.9586L57.3876 87.1045L47.1945 86.3938Z" fill="#293358"/>
<path d="M47.7065 84.6825L47.9491 86.4463L57.3872 87.1044L57.1061 85.3379L47.7065 84.6825Z" fill="#F7987A"/>
<path d="M74.9413 51.2648H70.9326H61.5858C61.5858 51.2648 58.3254 51.3874 54.3611 52.0529C52.7855 52.3173 51.0991 52.6682 49.462 53.1308C46.4608 53.9784 43.6251 55.2037 41.9418 56.9677C37.0309 62.1164 46.2192 85.4831 46.2192 85.4831H55.5659H59.3679H68.7147L63.4076 64.4135C63.4076 64.4135 75.9228 63.9381 80.1209 60.2946C83.3406 57.5002 84.2878 51.2648 84.2878 51.2648H74.9413Z" fill="#FECF46"/>
<path d="M58.8923 87.2255L54.7734 93.9581H64.9915C64.9915 93.9581 66.1004 91.661 67.6052 93.9581H71.0906L69.1104 87.2255H58.8923Z" fill="#293358"/>
<path d="M59.2842 85.483L59.6491 87.2255H69.11L68.7068 85.483H59.2842Z" fill="#F7987A"/>
<path d="M59.3306 85.7043L68.9084 86.3543L68.7141 85.483H59.2881L59.3306 85.7043Z" fill="black"/>
<path d="M47.8169 85.483H57.1284L57.2684 86.3543L47.8482 85.7098L47.8169 85.483Z" fill="black"/>
<path d="M75.7642 20.3729C74.9728 19.6143 74.6301 18.1526 74.7257 17.0603C73.784 17.1253 72.448 17.0163 71.5661 16.6502C71.2285 16.51 71.0115 16.254 70.9234 15.8822C70.3239 15.9474 69.5989 16.0342 69.0106 15.9007C68.4223 15.7671 67.8528 15.397 67.6439 14.8312C67.4214 14.228 67.667 13.5167 68.1412 13.0826C68.6154 12.6485 69.2765 12.4636 69.9195 12.4527C70.5622 12.4417 71.1964 12.5899 71.8193 12.7481C71.8861 12.2444 72.3411 11.8716 72.8366 11.7599C73.332 11.6482 73.8538 11.7718 74.3189 11.9761C75.2967 12.4053 76.1085 13.2016 76.5563 14.1712C76.7159 13.7808 77.3899 13.7335 77.7739 13.908C78.1579 14.0826 78.3905 14.4973 78.4497 14.915C78.5086 15.3327 78.4199 15.7565 78.3124 16.1642C77.9196 17.6514 77.4345 19.1095 76.5566 20.3723" fill="black"/>
<path d="M75.2842 19.8869C75.5586 19.6559 75.874 19.4562 76.228 19.3964C76.582 19.3366 76.9793 19.441 77.1985 19.7251C77.3646 19.9398 77.4098 20.2266 77.3931 20.4974C77.3624 20.9874 77.139 21.4625 76.7811 21.7986C76.4235 22.1346 75.935 22.328 75.4442 22.328" fill="#F7987A"/>
<path d="M76.5793 20.4537C76.5405 20.375 76.4627 20.3149 76.3768 20.2964C76.2912 20.2782 76.1956 20.301 76.1279 20.3568L75.9834 20.1807C76.1051 20.0809 76.2703 20.0408 76.4245 20.0739C76.5787 20.107 76.7129 20.2111 76.783 20.3523L76.5793 20.4537Z" fill="black"/>
<path d="M55.4603 85.5246C55.4372 85.466 53.1413 79.6022 51.4755 73.1846C50.4965 69.4121 49.9231 66.1878 49.7716 63.602C49.5806 60.3458 50.0636 58.0872 51.2063 56.889L51.3711 57.0463C48.8703 59.668 50.1674 67.2385 51.6959 73.1276C53.3583 79.5321 55.6491 85.3832 55.6719 85.4415L55.4603 85.5246Z" fill="black"/>
<path d="M66.8338 85.5122L60.6782 62.1455L60.8388 62.1588C66.5032 62.6279 71.2809 61.4715 74.2914 60.4193C77.064 59.45 78.883 58.3909 79.3769 58.0882C78.7458 57.5721 78.3945 56.9176 78.3317 56.1398C78.1313 53.6596 80.8936 50.779 81.0114 50.6576L81.175 50.8161C81.1471 50.8449 78.3666 53.7449 78.5588 56.1219C78.6204 56.8833 78.9853 57.5175 79.6432 58.0071L79.7737 58.1043L79.6377 58.1935C79.6183 58.2063 77.6526 59.4859 74.3667 60.6343C71.3638 61.684 66.6149 62.8361 60.9806 62.3987L67.0542 85.4545L66.8338 85.5122Z" fill="black"/>
<path d="M100.517 93.9586H97.8241L88.9922 53.0373L88.8692 52.4669L88.6097 51.2648L88.3188 49.9181H91.0119L91.3027 51.2648L91.6433 52.8415L100.517 93.9586Z" fill="#BEC7E6"/>
<path d="M89.6655 49.9181L89.3747 51.2648L89.1085 52.4994L88.9922 53.0373L80.1603 93.9586H77.4673L86.4917 52.1469L86.6817 51.2648L86.9722 49.9181H89.6655Z" fill="#BEC7E6"/>
<path d="M91.6434 52.8415L89.1085 52.4994L88.8693 52.4669L86.4917 52.147L86.6817 51.2648H91.3028L91.6434 52.8415Z" fill="black"/>
<path d="M23.0501 93.9586H20.3568L11.5249 53.0373L11.4022 52.4669L11.1424 51.2648L10.8516 49.9181H13.5449L13.8354 51.2648L14.176 52.8415L23.0501 93.9586Z" fill="#BEC7E6"/>
<path d="M12.1982 49.9181L11.9074 51.2648L11.6415 52.4994L11.5249 53.0373L2.69301 93.9586H0L9.02437 52.1469L9.21441 51.2648L9.50523 49.9181H12.1982Z" fill="#BEC7E6"/>
<path d="M100.952 47.5505H0.43457V50.9566H100.952V47.5505Z" fill="#293358"/>
<path d="M14.1761 52.8415L11.6415 52.4994L11.4023 52.4669L9.02441 52.147L9.21445 51.2648H13.8355L14.1761 52.8415Z" fill="black"/>
<path d="M103.404 59.5656L104.365 61.5847C104.895 61.3139 105.43 61.0398 105.922 60.7055C105.997 60.6548 106.071 60.6017 106.144 60.548C106.303 60.4308 106.455 60.3057 106.6 60.1709C107.249 59.5699 107.741 58.742 107.74 57.858C107.739 56.9734 107.143 56.0663 106.276 55.8945C105.446 55.7305 104.609 56.2572 104.147 56.9685C104.129 56.9955 104.113 57.0222 104.096 57.0493C104.06 57.1088 104.026 57.1698 103.995 57.2308C103.624 57.9427 103.511 58.7657 103.404 59.5656Z" fill="#009333"/>
<path d="M103.404 59.5655L104.365 61.5846C104.895 61.3138 105.43 61.0397 105.922 60.7054C105.997 60.6547 106.071 60.6016 106.144 60.5479L104.168 56.9675L104.146 56.9684C104.129 56.9955 104.112 57.0222 104.096 57.0492C104.06 57.1087 104.026 57.1697 103.995 57.2307C103.624 57.9426 103.511 58.7656 103.404 59.5655Z" fill="black"/>
<path d="M99.9381 63.6132C99.9833 63.7987 100.034 63.9814 100.089 64.1636C100.261 64.7307 100.481 65.2829 100.747 65.8126L102.19 66.7339C102.926 66.067 103.524 65.2528 103.955 64.3576C104.025 64.2125 104.091 64.0661 104.153 63.9171C104.611 62.7993 104.819 61.5789 104.728 60.3731C104.662 59.4995 104.432 58.6085 103.878 57.9297C103.325 57.2518 102.395 56.8335 101.55 57.0639C100.94 57.2311 100.449 57.7087 100.152 58.2679C99.8561 58.8261 99.7359 59.4615 99.6755 60.0911C99.5635 61.2696 99.6545 62.4648 99.9381 63.6132Z" fill="#009333"/>
<path d="M100.09 64.1639C100.262 64.7309 100.482 65.2831 100.748 65.8129L102.19 66.7342C102.927 66.0673 103.524 65.2531 103.956 64.3578C104.026 64.2127 104.091 64.0664 104.153 63.9174L100.09 64.1639Z" fill="black"/>
<path d="M93.0506 64.1259C93.1869 65.4239 93.7722 66.6701 94.6832 67.6048C95.1188 68.0508 95.6273 68.4248 96.181 68.7114C96.1938 68.7183 96.2062 68.7247 96.219 68.7311C96.8131 69.0338 97.4585 69.2365 98.12 69.3228L99.6527 66.1085C99.5419 65.5502 99.4293 64.9892 99.2781 64.4413C99.2726 64.4215 99.2669 64.4009 99.2608 64.3812C99.1491 63.9829 99.0143 63.5922 98.8449 63.2151C98.4329 62.3002 97.7827 61.4583 96.8877 61.0051C95.9919 60.5522 94.8307 60.5561 94.0408 61.1745C93.1869 61.843 92.9373 63.0485 93.0506 64.1259Z" fill="#009333"/>
<path d="M96.1807 68.7111C96.1934 68.718 96.2059 68.7244 96.2186 68.7308C96.8127 69.0334 97.4581 69.2362 98.1196 69.3225L99.6523 66.1082C99.5415 65.5499 99.4289 64.9889 99.2777 64.441C99.2723 64.4212 99.2665 64.4006 99.2604 64.3809C98.7064 65.1538 96.834 67.7669 96.1807 68.7111Z" fill="black"/>
<path d="M99.1411 74.6305C98.6876 73.459 98.2316 72.2796 97.9951 71.0459C97.7586 69.8122 97.7516 68.5074 98.1833 67.3277C98.615 66.148 99.5282 65.1089 100.721 64.7145C101.861 64.3375 103.17 64.5922 104.138 65.3032C105.105 66.0141 105.73 67.1474 105.901 68.3359C106.132 69.9324 105.578 71.5629 104.699 72.9156C103.82 74.2683 102.633 75.3876 101.458 76.4926" fill="#009333"/>
<path d="M100.382 93.9585C104.713 93.9585 108.224 90.4476 108.224 86.1168V74.3145H92.5405V86.1168C92.5405 90.4476 96.0514 93.9585 100.382 93.9585Z" fill="#FE6EAC"/>
<mask id="mask1_135_2191" style="mask-type:luminance" maskUnits="userSpaceOnUse" x="92" y="74" width="17" height="20">
<path d="M100.382 93.9585C104.713 93.9585 108.224 90.4476 108.224 86.1168V74.3145H92.5405V86.1168C92.5405 90.4476 96.0514 93.9585 100.382 93.9585Z" fill="white"/>
</mask>
<g mask="url(#mask1_135_2191)">
<path d="M90.6317 69.9257C90.5916 73.6381 90.9137 77.3699 91.8921 80.9609C92.7573 84.1369 94.1371 87.1636 96.0113 89.8721C96.9567 91.2385 98.021 92.5229 99.187 93.7065C99.8091 94.338 100.459 94.9415 101.135 95.5149C101.724 96.0146 102.327 96.5176 103.014 96.8768C104.314 97.5562 106.119 97.7614 107.279 96.694C107.803 96.2122 108.047 95.5635 108.115 94.865C108.201 93.9831 108.149 93.0736 108.129 92.189C108.045 88.3518 107.636 84.5225 106.92 80.7518C106.557 78.8399 106.116 76.9425 105.597 75.0667C105.165 73.5061 104.661 71.949 103.807 70.562C103.068 69.3623 102.035 68.0551 100.542 67.8599C99.1157 67.6735 97.7851 68.5551 97.4296 69.9439C97.2363 70.6995 97.1983 71.5143 97.1774 72.2905C97.154 73.1506 97.1965 74.0121 97.2982 74.8661C97.4992 76.5518 97.9227 78.2042 98.511 79.7955C101.006 86.5461 106.113 92.0281 111.161 96.9888C111.821 97.6369 112.485 98.279 113.153 98.9186C113.259 99.02 113.42 98.8591 113.314 98.7577C108.397 94.0484 103.386 89.0813 100.19 82.9925C98.6525 80.0627 97.5617 76.8411 97.416 73.5155C97.3811 72.7201 97.4002 71.9226 97.477 71.1303C97.5571 70.303 97.6774 69.4221 98.2994 68.8107C98.8923 68.2281 99.7848 67.9634 100.601 68.0973C101.319 68.215 101.94 68.6267 102.44 69.1394C103.576 70.3043 104.315 71.827 104.838 73.3506C105.391 74.9608 105.796 76.6295 106.174 78.288C106.986 81.8534 107.523 85.4812 107.766 89.1298C107.885 90.9024 107.973 92.6981 107.911 94.4749C107.884 95.2897 107.683 96.0635 107.037 96.6051C106.337 97.1919 105.375 97.3021 104.501 97.1506C102.846 96.8634 101.533 95.6096 100.343 94.5092C99.1886 93.4415 98.1185 92.2822 97.1516 91.0417C95.2606 88.6156 93.7749 85.8801 92.7576 82.9776C91.5752 79.6033 91.0242 76.0436 90.8907 72.4785C90.8588 71.6278 90.8509 70.7769 90.86 69.926C90.8609 69.7794 90.6332 69.7791 90.6317 69.9257Z" fill="white"/>
</g>
<path d="M108.224 77.8022H92.5405V78.0299H108.224V77.8022Z" fill="black"/>
<path d="M74.3968 47.0847L73.2125 46.6157L72.1567 46.1983C72.1567 46.1983 71.6324 46.5358 71.0344 46.8707C70.7129 47.0504 70.3705 47.2295 70.076 47.3555C67.3845 48.5063 64.8172 47.4293 64.3181 46.4177C63.8199 45.4071 64.6135 45.0095 64.6135 45.0095C64.6135 45.0095 63.2574 44.3149 63.4475 42.8541C63.5291 42.2339 64.3664 42.2132 64.3664 42.2132C64.3664 42.2132 63.4824 41.1708 64.4004 40.5299C65.1973 39.9738 66.2816 41.6103 67.1134 42.2011C67.9452 42.7922 69.359 42.4752 69.359 42.4752C69.359 42.4752 68.0408 39.8035 69.6395 39.6183C70.3926 39.5312 70.5092 41.1978 71.1325 41.9652C71.2284 42.0833 71.3535 42.1774 71.4967 42.2527C71.8404 42.4348 72.2897 42.5077 72.688 42.5332C73.2068 42.5648 73.6385 42.515 73.6385 42.515L74.3968 47.0847Z" fill="#F7987A"/>
<path d="M67.4814 46.1658C67.4419 46.1655 66.5109 46.161 66.1517 46.0857C65.7598 46.0034 64.6682 45.1932 64.5449 45.1009L64.6812 44.9185C65.0048 45.1604 65.9083 45.8019 66.1985 45.8626C66.5355 45.9333 67.4732 45.9379 67.4823 45.9382L67.4814 46.1658Z" fill="black"/>
<path d="M67.3608 44.3051C67.3186 44.2972 66.3217 44.1099 65.7412 43.7891C65.2212 43.5016 64.3141 42.3328 64.2759 42.283L64.4559 42.1437C64.465 42.1555 65.3724 43.3249 65.8514 43.5896C66.3994 43.8926 67.3924 44.0793 67.4024 44.0811L67.3608 44.3051Z" fill="black"/>
<path d="M70.2795 40.8782C69.7786 40.7986 69.428 40.4219 69.4268 39.9617L69.6544 39.9611C69.6557 40.3648 69.9975 40.6028 70.315 40.6532L70.2795 40.8782Z" fill="black"/>
<path d="M73.2123 46.6157L72.1565 46.1983C72.1565 46.1983 71.6322 46.5358 71.0342 46.8707L71.4968 42.2527C71.8405 42.4348 72.2898 42.5077 72.6881 42.5332L73.2123 46.6157Z" fill="black"/>
<path d="M75.4472 28.5315C84.477 28.5315 94.4573 39.3831 91.6851 44.5317C88.9128 49.6803 71.7241 47.8586 71.7241 47.8586V39.7L83.1303 38.6703" fill="#865EA6"/>
<path d="M83.128 38.5551L71.7212 39.5847L71.7417 39.8115L83.1485 38.7819L83.128 38.5551Z" fill="black"/>
<path d="M62.4567 47.8586H44.0801V45.5614H61.6646L62.4567 47.8586Z" fill="#D7D8CE"/>
<path d="M52.657 47.8586H44.0801V45.5614H51.5313L52.657 47.8586Z" fill="black"/>
<path d="M51.4771 47.8586H23.9504L19.5811 30.274H47.1077L51.4771 47.8586Z" fill="#D7D8CE"/>
<path d="M23.0693 44.7852L19.4355 30.1602H24.3009V30.3878H19.7267L23.2903 44.7302L23.0693 44.7852Z" fill="black"/>
<path d="M37.5967 39.7C37.5967 40.6186 36.6711 41.3633 35.5291 41.3633C34.387 41.3633 33.4614 40.6186 33.4614 39.7C33.4614 38.7814 34.387 38.0367 35.5291 38.0367C36.6708 38.0364 37.5967 38.7814 37.5967 39.7Z" fill="white"/>
<path d="M6.85459 38.2741V42.8684H6.85307C6.50457 42.8684 6.18612 42.7345 5.9469 42.516C5.67611 42.2704 5.50642 41.9155 5.50642 41.5218V41.2048C5.50642 40.683 5.80513 40.2288 6.24076 40.0063C6.42443 39.9113 6.63298 39.8582 6.85307 39.8582V38.2738C6.71282 38.2738 6.575 38.2832 6.44052 38.3033C5.01948 38.5036 3.92236 39.7291 3.92236 41.2048V41.5218C3.92236 42.7464 4.67736 43.7973 5.74563 44.2354C6.08716 44.3747 6.46177 44.4525 6.85307 44.4525H6.87979C7.09563 46.3689 8.72067 47.8586 10.6948 47.8586C12.8156 47.8586 14.535 46.1394 14.535 44.0187V38.2744L6.85459 38.2741Z" fill="#FECF46"/>
<g opacity="0.3">
<path d="M6.8543 38.2741C4.56292 37.4211 3.34163 34.5319 3.99523 32.1759C4.64883 29.8199 7.25896 28.1918 9.66236 28.6411C9.49843 26.9629 9.77651 25.0932 10.4186 23.534C11.0606 21.9749 12.2722 20.6067 13.8493 20.0101C15.4263 19.4136 17.3622 19.6941 18.5522 20.8887C19.7723 22.1136 20.0297 23.9982 19.9614 25.7258C19.7933 29.968 17.7147 35.5016 14.5341 38.2741" fill="#BEC7E6"/>
</g>
<g opacity="0.3">
<path d="M6.86341 38.2741C4.98762 36.5966 3.14462 34.1913 2.45641 31.7645C1.76821 29.3381 2.08059 26.5513 3.64005 24.5735C5.19951 22.596 8.09562 21.6595 10.3794 22.7086C11.9595 23.4345 13.07 24.9784 13.5669 26.6508C14.0639 28.3235 14.0056 30.1174 13.726 31.8401C13.8909 31.073 14.906 30.5785 15.6704 30.7409C16.4345 30.9033 17.0228 31.5794 17.2399 32.3335C17.4566 33.0875 17.3495 33.9026 17.1081 34.6491C16.7405 35.7854 15.2569 37.486 14.3626 38.2738" fill="#BEC7E6"/>
</g>
<mask id="mask2_135_2191" style="mask-type:luminance" maskUnits="userSpaceOnUse" x="3" y="38" width="12" height="10">
<path d="M6.85459 38.2741V42.8684H6.85307C6.50457 42.8684 6.18612 42.7345 5.9469 42.516C5.67611 42.2704 5.50642 41.9155 5.50642 41.5218V41.2048C5.50642 40.683 5.80513 40.2288 6.24076 40.0063C6.42443 39.9113 6.63298 39.8582 6.85307 39.8582V38.2738C6.71282 38.2738 6.575 38.2832 6.44052 38.3033C5.01948 38.5036 3.92236 39.7291 3.92236 41.2048V41.5218C3.92236 42.7464 4.67736 43.7973 5.74563 44.2354C6.08716 44.3747 6.46177 44.4525 6.85307 44.4525H6.87979C7.09563 46.3689 8.72067 47.8586 10.6948 47.8586C12.8156 47.8586 14.535 46.1394 14.535 44.0187V38.2744H6.85459V38.2741Z" fill="white"/>
</mask>
<g mask="url(#mask2_135_2191)">
<path d="M13.7103 33.3985C9.74168 37.3516 7.13913 42.6116 6.20199 48.1209C5.9901 49.3668 5.57511 51.0425 6.36866 52.1627C6.65098 52.5613 7.08692 52.8673 7.59267 52.8397C8.14305 52.8096 8.58232 52.4038 8.91049 51.9976C9.35189 51.4508 9.70343 50.8212 10.0626 50.2192C10.4593 49.5544 10.8391 48.8796 11.2022 48.1956C11.8949 46.8902 12.5249 45.5518 13.0931 44.1878C14.4398 40.9553 15.4285 37.5796 16.0548 34.1349C16.0809 33.9916 15.8614 33.9303 15.8353 34.0745C14.8138 39.694 12.8217 45.1359 9.90014 50.048C9.39196 50.9023 8.2997 53.2796 6.97672 52.4478C5.68895 51.6381 6.19957 49.5222 6.40084 48.3058C6.83586 45.6759 7.65065 43.1068 8.81243 40.7076C10.0917 38.0656 11.7905 35.6331 13.8715 33.5603C13.975 33.4561 13.8141 33.2949 13.7103 33.3985Z" fill="#865EA6"/>
</g>
<path d="M8.43652 38.2742L14.5341 39.4208V38.2742H8.43652Z" fill="black"/>
</svg>
